<svg width="24" height="24" xmlns="http://www.w3.org/2000/svg" version="1.1">
 <!-- Uploaded to: SVG Repo, www.svgrepo.com, Generator: SVG Repo Mixer Tools -->

 <title>ic_fluent_highlight_24_regular</title>
 <desc>Created with Sketch.</desc>
 <g>
  <title>Layer 1</title>
  <g fill-rule="evenodd" fill="none" id="ðŸ”-Product-Icons">
   <g fill-rule="nonzero" fill="#212121" id="ic_fluent_highlight_24_regular">
    <path stroke="#ffffff" fill="#ffffff" id="ðŸŽ¨-Color" d="m20.25856,2.00438c0.3797,0.00035 0.69324,0.28278 0.74257,0.6489l0.00676,0.10178l-0.00405,4.49771c-0.00293,1.15632 -0.87674,2.10796 -2.0009,2.23395l-0.00045,2.25976c0,1.19087 -0.92516,2.16565 -2.09595,2.24481l-0.15405,0.00519l-0.25149,-0.0001l0.00075,2.79174c0,0.81495 -0.44006,1.56123 -1.14167,1.95812l-0.15429,0.0796l-6.63471,3.1063c-0.46623,0.21828 -0.99696,-0.08708 -1.06148,-0.57856l-0.00653,-0.10068l-0.00007,-7.25652l-0.253,0.0001c-1.19086,0 -2.16564,-0.92516 -2.24481,-2.09595l-0.00519,-0.15405l0.00044,-2.25929c-1.07162,-0.11825 -1.91652,-0.98907 -1.99455,-2.07231l-0.00589,-0.16401l0,-4.49648c0,-0.41422 0.33579,-0.75001 0.75,-0.75001c0.3797,0 0.69349,0.28216 0.74315,0.64823l0.00685,0.10178l0,4.49648c0,0.3797 0.28215,0.69349 0.64823,0.74315l0.10177,0.00685l13.50127,0c0.38033,-0.00062 0.69488,-0.28327 0.74547,-0.64902l0.0071,-0.10165l0.00405,-4.49649c0.00037,-0.41421 0.33646,-0.7497 0.75067,-0.74933zm-5.25756,11.992l-5.998,0l0.00007,6.07725l5.5667,-2.60627c0.23064,-0.10798 0.3884,-0.3242 0.42423,-0.57155l0.00775,-0.10769l-0.00075,-2.79174zm2.501,-4.496l-11.002,0l0,2.2461c0,0.3797 0.28215,0.6935 0.64823,0.74316l0.10177,0.00684l9.50249,0c0.3797,0 0.69349,-0.28215 0.74316,-0.64822l0.00684,-0.10178l-0.00049,-2.2461z"/>
   </g>
  </g>
 </g>
</svg>