<svg width="27.999999999999996" height="27.999999999999996" xmlns="http://www.w3.org/2000/svg" version="1.1">
 <!-- Uploaded to: SVG Repo, www.svgrepo.com, Generator: SVG Repo Mixer Tools -->

 <title>ic_fluent_filter_28_filled</title>
 <desc>Created with Sketch.</desc>
 <g>
  <title>Layer 1</title>
  <g fill-rule="evenodd" fill="none" id="ðŸ”-Product-Icons">
   <g fill-rule="nonzero" fill="#212121" id="ic_fluent_filter_28_filled">
    <path stroke="#ffffff" fill="#ffffff" id="ðŸŽ¨-Color" d="m17,19c0.55228,0 1,0.44772 1,1c0,0.55228 -0.44772,1 -1,1l-6,0c-0.55228,0 -1,-0.44772 -1,-1c0,-0.55228 0.44772,-1 1,-1l6,0zm4,-6c0.55228,0 1,0.44772 1,1c0,0.55228 -0.44772,1 -1,1l-14,0c-0.55228,0 -1,-0.44772 -1,-1c0,-0.55228 0.44772,-1 1,-1l14,0zm3,-6c0.55228,0 1,0.44772 1,1c0,0.55228 -0.44772,1 -1,1l-20,0c-0.55228,0 -1,-0.44772 -1,-1c0,-0.55228 0.44772,-1 1,-1l20,0z"/>
   </g>
  </g>
 </g>
</svg>